<?xml version="1.0" standalone="yes"?>

<svg version="1.1" viewBox="0.0 0.0 173.95538057742783 271.25984251968504" fill="none" stroke="none" stroke-linecap="square" stroke-miterlimit="10" xmlns="http://www.w3.org/2000/svg" xmlns:xlink="http://www.w3.org/1999/xlink"><clipPath id="p.0"><path d="m0 0l173.95538 0l0 271.25986l-173.95538 0l0 -271.25986z" clip-rule="nonzero"></path></clipPath><g clip-path="url(#p.0)"><path fill="#000000" fill-opacity="0.0" d="m0 0l173.95538 0l0 271.25986l-173.95538 0z" fill-rule="nonzero"></path><path fill="#000000" fill-opacity="0.0" d="m4.8766403 4.133858l87.874016 0l0 32.472443l-87.874016 0z" fill-rule="nonzero"></path><path stroke="#ffff00" stroke-width="3.0" stroke-linejoin="round" stroke-linecap="butt" d="m4.8766403 4.133858l87.874016 0l0 32.472443l-87.874016 0z" fill-rule="nonzero"></path><path fill="#ffffff" d="m44.52994 27.290077l0 -1.25q-0.9375 1.46875 -2.75 1.46875q-1.171875 0 -2.171875 -0.640625q-0.984375 -0.65625 -1.53125 -1.8125q-0.53125 -1.171875 -0.53125 -2.6875q0 -1.46875 0.484375 -2.671875q0.5 -1.203125 1.46875 -1.84375q0.984375 -0.640625 2.203125 -0.640625q0.890625 0 1.578125 0.375q0.703125 0.375 1.140625 0.984375l0 -4.874999l1.65625 0l0 13.593749l-1.546875 0zm-5.28125 -4.921875q0 1.890625 0.796875 2.828125q0.8125 0.9375 1.890625 0.9375q1.09375 0 1.859375 -0.890625q0.765625 -0.890625 0.765625 -2.734375q0 -2.015625 -0.78125 -2.953125q-0.78125 -0.953125 -1.921875 -0.953125q-1.109375 0 -1.859375 0.90625q-0.75 0.90625 -0.75 2.859375zm9.281967 -6.765624l0 -1.90625l1.671875 0l0 1.90625l-1.671875 0zm0 11.687499l0 -9.859375l1.671875 0l0 9.859375l-1.671875 0zm6.863571 0l-3.75 -9.859375l1.765625 0l2.125 5.90625q0.34375 0.953125 0.625 1.984375q0.21875 -0.78125 0.625 -1.875l2.1875 -6.015625l1.71875 0l-3.734375 9.859375l-1.5625 0z" fill-rule="nonzero"></path><path fill="#000000" fill-opacity="0.0" d="m4.8766403 73.97638l87.874016 0l0 32.472443l-87.874016 0z" fill-rule="nonzero"></path><path stroke="#ffff00" stroke-width="3.0" stroke-linejoin="round" stroke-linecap="butt" d="m4.8766403 73.97638l87.874016 0l0 32.472443l-87.874016 0z" fill-rule="nonzero"></path><path fill="#ffffff" d="m49.256504 97.1326l0 -1.453125q-1.140625 1.671875 -3.125 1.671875q-0.859375 0 -1.625 -0.328125q-0.75 -0.34375 -1.125 -0.84375q-0.359375 -0.5 -0.515625 -1.234375q-0.09375 -0.5 -0.09375 -1.5625l0 -6.109375l1.671875 0l0 5.46875q0 1.3125 0.09375 1.765625q0.15625 0.65625 0.671875 1.03125q0.515625 0.375 1.265625 0.375q0.75 0 1.40625 -0.375q0.65625 -0.390625 0.921875 -1.046875q0.28125 -0.671875 0.28125 -1.9375l0 -5.28125l1.671875 0l0 9.859375l-1.5 0zm3.8913422 0l0 -13.59375l1.671875 0l0 13.59375l-1.671875 0z" fill-rule="nonzero"></path><path fill="#000000" fill-opacity="0.0" d="m59.62992 133.7769l87.874016 0l0 32.472443l-87.874016 0z" fill-rule="nonzero"></path><path stroke="#ffff00" stroke-width="3.0" stroke-linejoin="round" stroke-linecap="butt" d="m59.62992 133.7769l87.874016 0l0 32.472443l-87.874016 0z" fill-rule="nonzero"></path><path fill="#ffffff" d="m100.64086 156.93312l0 -13.59375l1.671875 0l0 13.59375l-1.671875 0zm4.191696 -11.6875l0 -1.90625l1.671875 0l0 1.90625l-1.671875 0zm0 11.6875l0 -9.859375l1.671875 0l0 9.859375l-1.671875 0z" fill-rule="nonzero"></path><path fill="#000000" fill-opacity="0.0" d="m4.8766403 225.51968l87.874016 0l0 32.472443l-87.874016 0z" fill-rule="nonzero"></path><path stroke="#ffff00" stroke-width="3.0" stroke-linejoin="round" stroke-linecap="butt" d="m4.8766403 225.51968l87.874016 0l0 32.472443l-87.874016 0z" fill-rule="nonzero"></path><path fill="#ffffff" d="m45.887577 248.6759l0 -13.59375l1.671875 0l0 13.59375l-1.671875 0zm4.191696 -11.6875l0 -1.90625l1.671875 0l0 1.90625l-1.671875 0zm0 11.6875l0 -9.859375l1.671875 0l0 9.859375l-1.671875 0z" fill-rule="nonzero"></path><path fill="#000000" fill-opacity="0.0" d="m133.69554 129.29396l7.3062897 -7.3062973l0 3.6531525l5.276779 0l0 -5.2767715l-3.6531525 0l7.306305 -7.306305l7.3062897 7.306305l-3.6531372 0l0 5.2767715l5.276764 0l0 -3.6531525l7.306305 7.3062973l-7.306305 7.306305l0 -3.6531525l-5.276764 0l0 5.276764l3.6531372 0l-7.3062897 7.306305l-7.306305 -7.306305l3.6531525 0l0 -5.276764l-5.276779 0l0 3.6531525z" fill-rule="nonzero"></path><path stroke="#ffffff" stroke-width="1.0" stroke-linejoin="round" stroke-linecap="butt" d="m133.69554 129.29396l7.3062897 -7.3062973l0 3.6531525l5.276779 0l0 -5.2767715l-3.6531525 0l7.306305 -7.306305l7.3062897 7.306305l-3.6531372 0l0 5.2767715l5.276764 0l0 -3.6531525l7.306305 7.3062973l-7.306305 7.306305l0 -3.6531525l-5.276764 0l0 5.276764l3.6531372 0l-7.3062897 7.306305l-7.306305 -7.306305l3.6531525 0l0 -5.276764l-5.276779 0l0 3.6531525z" fill-rule="nonzero"></path><path fill="#000000" fill-opacity="0.0" d="m48.81365 36.6063l0 37.385826" fill-rule="nonzero"></path><path stroke="#ffffff" stroke-width="1.0" stroke-linejoin="round" stroke-linecap="butt" d="m48.81365 36.6063l0 31.385826" fill-rule="evenodd"></path><path fill="#ffffff" stroke="#ffffff" stroke-width="1.0" stroke-linecap="butt" d="m47.161915 67.99213l1.6517334 4.5380936l1.6517334 -4.5380936z" fill-rule="evenodd"></path><path fill="#000000" fill-opacity="0.0" d="m48.81365 106.44882l0 119.08661" fill-rule="nonzero"></path><path stroke="#ffffff" stroke-width="1.0" stroke-linejoin="round" stroke-linecap="butt" d="m48.81365 106.44882l0 113.08661" fill-rule="evenodd"></path><path fill="#ffffff" stroke="#ffffff" stroke-width="1.0" stroke-linecap="butt" d="m47.161915 219.53543l1.6517334 4.538101l1.6517334 -4.538101z" fill-rule="evenodd"></path></g></svg>

