<?xml version="1.0" encoding="utf-8"?><!-- Generator: Iparigrafika Gear Generator by Abel Vincze http://geargenerator.com/ --><svg version="1.2" class="svggear" xmlns="http://www.w3.org/2000/svg" xmlns:xlink="http://www.w3.org/1999/xlink" x="0px" y="0px" width="126px" height="126px" viewBox="-63 -63 126 126" overflow="scroll" xml:space="preserve"><polygon id="gearpoly0" data-id="0" class="gear" fill="#ddd" stroke="#444" stroke-width="1" stroke-miterlimit="10" points="35.625,0 43.7376,-0.0001 43.8125,-0.0033 43.9701,-0.0167 44.2096,-0.0475 44.5295,-0.1028 44.9281,-0.1896 45.403,-0.315 45.9515,-0.4856 46.5704,-0.7081 47.2561,-0.989 48.0044,-1.3343 48.811,-1.7501 49.671,-2.2419 50.5791,-2.8152 51.5297,-3.4751 52.5169,-4.2261 53.5344,-5.0728 54.5756,-6.019 55.6337,-7.0683 56.7016,-8.224 57.7718,-9.4886 58.8368,-10.8645 59.8888,-12.3536 60.9199,-13.9572 60.4347,-15.9274 58.7769,-16.8688 57.1537,-17.6991 55.5716,-18.4232 54.0365,-19.0462 52.5542,-19.5738 51.1298,-20.0119 49.7682,-20.3664 48.4739,-20.6437 47.2508,-20.8505 46.1025,-20.9934 45.032,-21.0795 44.042,-21.1158 43.1346,-21.1095 42.3115,-21.0678 41.5738,-20.9981 40.9224,-20.9078 40.3573,-20.8042 39.8785,-20.6947 39.4852,-20.5866 39.1762,-20.487 38.9498,-20.403 38.804,-20.3417 38.7362,-20.3098 31.5512,-16.5427 25.1907,-25.1907 30.9271,-30.9272 30.9778,-30.9825 31.0797,-31.1034 31.2273,-31.2945 31.4144,-31.5598 31.6349,-31.903 31.8821,-32.3275 32.1492,-32.836 32.4295,-33.431 32.7158,-34.1144 33.0008,-34.8877 33.2771,-35.7521 33.5374,-36.7079 33.7741,-37.7555 33.9797,-38.8942 34.1467,-40.1234 34.2675,-41.4416 34.3347,-42.8469 34.3409,-44.3371 34.2789,-45.9093 34.1414,-47.5603 33.9215,-49.2863 33.6124,-51.0831 33.2076,-52.9461 31.4714,-53.9961 29.6335,-53.4896 27.8986,-52.9289 26.2679,-52.3222 24.7419,-51.6773 23.3206,-51.0022 22.0037,-50.3047 20.7903,-49.5926 19.6789,-48.8735 18.6679,-48.1549 17.7548,-47.444 16.937,-46.7479 16.2113,-46.0735 15.5741,-45.4274 15.0215,-44.8159 14.5492,-44.245 14.1524,-43.7205 13.8261,-43.2478 13.565,-42.8318 13.3634,-42.4772 13.2153,-42.1882 13.1146,-41.9688 13.0548,-41.8223 13.0294,-41.7518 10.6126,-34.0075 0,-35.625 -0.0001,-43.7376 -0.0033,-43.8125 -0.0167,-43.9701 -0.0475,-44.2096 -0.1028,-44.5295 -0.1896,-44.9281 -0.315,-45.403 -0.4856,-45.9515 -0.7081,-46.5704 -0.989,-47.2561 -1.3343,-48.0044 -1.7501,-48.811 -2.2419,-49.671 -2.8152,-50.5791 -3.4751,-51.5297 -4.2261,-52.5169 -5.0728,-53.5344 -6.019,-54.5756 -7.0683,-55.6337 -8.224,-56.7016 -9.4886,-57.7718 -10.8645,-58.8368 -12.3536,-59.8888 -13.9572,-60.9199 -15.9274,-60.4347 -16.8688,-58.7769 -17.6991,-57.1537 -18.4232,-55.5716 -19.0462,-54.0365 -19.5738,-52.5542 -20.0119,-51.1298 -20.3664,-49.7682 -20.6437,-48.4739 -20.8505,-47.2508 -20.9934,-46.1025 -21.0795,-45.032 -21.1158,-44.042 -21.1095,-43.1346 -21.0678,-42.3115 -20.9981,-41.5738 -20.9078,-40.9224 -20.8042,-40.3573 -20.6947,-39.8785 -20.5866,-39.4852 -20.487,-39.1762 -20.403,-38.9498 -20.3417,-38.804 -20.3098,-38.7362 -16.5427,-31.5512 -25.1907,-25.1907 -30.9272,-30.9271 -30.9825,-30.9778 -31.1034,-31.0797 -31.2945,-31.2273 -31.5598,-31.4144 -31.903,-31.6349 -32.3275,-31.8821 -32.836,-32.1492 -33.431,-32.4295 -34.1144,-32.7158 -34.8877,-33.0008 -35.7521,-33.2771 -36.7079,-33.5374 -37.7555,-33.7741 -38.8942,-33.9797 -40.1234,-34.1467 -41.4416,-34.2675 -42.8469,-34.3347 -44.3371,-34.3409 -45.9093,-34.2789 -47.5603,-34.1414 -49.2863,-33.9215 -51.0831,-33.6124 -52.9461,-33.2076 -53.9961,-31.4714 -53.4896,-29.6335 -52.9289,-27.8986 -52.3222,-26.2679 -51.6773,-24.7419 -51.0022,-23.3206 -50.3047,-22.0037 -49.5926,-20.7903 -48.8735,-19.6789 -48.1549,-18.6679 -47.444,-17.7548 -46.7479,-16.937 -46.0735,-16.2113 -45.4274,-15.5741 -44.8159,-15.0215 -44.245,-14.5492 -43.7205,-14.1524 -43.2478,-13.8261 -42.8318,-13.565 -42.4772,-13.3634 -42.1882,-13.2153 -41.9688,-13.1146 -41.8223,-13.0548 -41.7518,-13.0294 -34.0075,-10.6126 -35.625,0 -43.7376,0.0001 -43.8125,0.0033 -43.9701,0.0167 -44.2096,0.0475 -44.5295,0.1028 -44.9281,0.1896 -45.403,0.315 -45.9515,0.4856 -46.5704,0.7081 -47.2561,0.989 -48.0044,1.3343 -48.811,1.7501 -49.671,2.2419 -50.5791,2.8152 -51.5297,3.4751 -52.5169,4.2261 -53.5344,5.0728 -54.5756,6.019 -55.6337,7.0683 -56.7016,8.224 -57.7718,9.4886 -58.8368,10.8645 -59.8888,12.3536 -60.9199,13.9572 -60.4347,15.9274 -58.7769,16.8688 -57.1537,17.6991 -55.5716,18.4232 -54.0365,19.0462 -52.5542,19.5738 -51.1298,20.0119 -49.7682,20.3664 -48.4739,20.6437 -47.2508,20.8505 -46.1025,20.9934 -45.032,21.0795 -44.042,21.1158 -43.1346,21.1095 -42.3115,21.0678 -41.5738,20.9981 -40.9224,20.9078 -40.3573,20.8042 -39.8785,20.6947 -39.4852,20.5866 -39.1762,20.487 -38.9498,20.403 -38.804,20.3417 -38.7362,20.3098 -31.5512,16.5427 -25.1907,25.1907 -30.9271,30.9272 -30.9778,30.9825 -31.0797,31.1034 -31.2273,31.2945 -31.4144,31.5598 -31.6349,31.903 -31.8821,32.3275 -32.1492,32.836 -32.4295,33.431 -32.7158,34.1144 -33.0008,34.8877 -33.2771,35.7521 -33.5374,36.7079 -33.7741,37.7555 -33.9797,38.8942 -34.1467,40.1234 -34.2675,41.4416 -34.3347,42.8469 -34.3409,44.3371 -34.2789,45.9093 -34.1414,47.5603 -33.9215,49.2863 -33.6124,51.0831 -33.2076,52.9461 -31.4714,53.9961 -29.6335,53.4896 -27.8986,52.9289 -26.2679,52.3222 -24.7419,51.6773 -23.3206,51.0022 -22.0037,50.3047 -20.7903,49.5926 -19.6789,48.8735 -18.6679,48.1549 -17.7548,47.444 -16.937,46.7479 -16.2113,46.0735 -15.5741,45.4274 -15.0215,44.8159 -14.5492,44.245 -14.1524,43.7205 -13.8261,43.2478 -13.565,42.8318 -13.3634,42.4772 -13.2153,42.1882 -13.1146,41.9688 -13.0548,41.8223 -13.0294,41.7518 -10.6126,34.0075 0,35.625 0.0001,43.7376 0.0033,43.8125 0.0167,43.9701 0.0475,44.2096 0.1028,44.5295 0.1896,44.9281 0.315,45.403 0.4856,45.9515 0.7081,46.5704 0.989,47.2561 1.3343,48.0044 1.7501,48.811 2.2419,49.671 2.8152,50.5791 3.4751,51.5297 4.2261,52.5169 5.0728,53.5344 6.019,54.5756 7.0683,55.6337 8.224,56.7016 9.4886,57.7718 10.8645,58.8368 12.3536,59.8888 13.9572,60.9199 15.9274,60.4347 16.8688,58.7769 17.6991,57.1537 18.4232,55.5716 19.0462,54.0365 19.5738,52.5542 20.0119,51.1298 20.3664,49.7682 20.6437,48.4739 20.8505,47.2508 20.9934,46.1025 21.0795,45.032 21.1158,44.042 21.1095,43.1346 21.0678,42.3115 20.9981,41.5738 20.9078,40.9224 20.8042,40.3573 20.6947,39.8785 20.5866,39.4852 20.487,39.1762 20.403,38.9498 20.3417,38.804 20.3098,38.7362 16.5427,31.5512 25.1907,25.1907 30.9272,30.9271 30.9825,30.9778 31.1034,31.0797 31.2945,31.2273 31.5598,31.4144 31.903,31.6349 32.3275,31.8821 32.836,32.1492 33.431,32.4295 34.1144,32.7158 34.8877,33.0008 35.7521,33.2771 36.7079,33.5374 37.7555,33.7741 38.8942,33.9797 40.1234,34.1467 41.4416,34.2675 42.8469,34.3347 44.3371,34.3409 45.9093,34.2789 47.5603,34.1414 49.2863,33.9215 51.0831,33.6124 52.9461,33.2076 53.9961,31.4714 53.4896,29.6335 52.9289,27.8986 52.3222,26.2679 51.6773,24.7419 51.0022,23.3206 50.3047,22.0037 49.5926,20.7903 48.8735,19.6789 48.1549,18.6679 47.444,17.7548 46.7479,16.937 46.0735,16.2113 45.4274,15.5741 44.8159,15.0215 44.245,14.5492 43.7205,14.1524 43.2478,13.8261 42.8318,13.565 42.4772,13.3634 42.1882,13.2153 41.9688,13.1146 41.8223,13.0548 41.7518,13.0294 34.0075,10.6126 "/><g class="guides"><polyline fill="none" stroke="#444" stroke-width="0.5" stroke-miterlimit="10" points="10,0 -10,0"/><polyline fill="none" stroke="#444" stroke-width="0.5" stroke-miterlimit="10" points="0,10 0,-10"/></g><circle fill="#c00" class="firstmarker" stroke="none" stroke-miterlimit="10" cx="48.5496" cy="-11.9557" r="4.9063"/><g class="geartext"><g class="text"><polyline fill="none" stroke="#444" stroke-width="0.5" stroke-linecap="square" stroke-miterlimit="1"  points="-14.64 -22.85 -15.35 -22.39 -16.04 -21.89 -16.72 -21.38 -17.38 -20.85 "/><polyline fill="none" stroke="#444" stroke-width="0.5" stroke-linecap="square" stroke-miterlimit="1"  points="-15.04 -20.53 -17.04 -23.26 "/><polyline fill="none" stroke="#444" stroke-width="0.5" stroke-linecap="square" stroke-miterlimit="1"  points="-15.56 -24.28 -15.83 -23.08 -16.04 -21.89 -16.2 -20.71 -16.29 -19.55 "/><polyline fill="none" stroke="#444" stroke-width="0.5" stroke-linecap="square" stroke-miterlimit="1"  points="-13.73 -21.43 -14.87 -21.69 -16.04 -21.89 -17.24 -22.05 -18.46 -22.15 "/><polyline fill="none" stroke="#444" stroke-width="0.5" stroke-linecap="square" stroke-miterlimit="1"  points="-10.23 -23.3 -10.58 -22.2 -11.27 -21.86 -12.36 -22.24 -14.01 -25.21 -13.61 -26.39 -12.77 -26.8 -11.59 -26.41 -10.23 -23.3 "/><polyline fill="none" stroke="#444" stroke-width="0.5" stroke-linecap="square" stroke-miterlimit="1"  points="-2.07 -29.62 -1.72 -24.54 -2.61 -25.74 -3.58 -26.91 -4.63 -28.04 -5.75 -29.13 -4.76 -24.13 "/><polyline fill="none" stroke="#444" stroke-width="0.5" stroke-linecap="square" stroke-miterlimit="1"  points="3.29 -27.8 2.42 -27.89 1.54 -27.95 0.67 -27.98 -0.21 -27.99 "/><polyline fill="none" stroke="#444" stroke-width="0.5" stroke-linecap="square" stroke-miterlimit="1"  points="3.09 -26.11 2.27 -26.2 1.45 -26.25 0.63 -26.29 -0.19 -26.29 "/><polyline fill="none" stroke="#444" stroke-width="0.5" stroke-linecap="square" stroke-miterlimit="1"  points="5.7 -26.54 4.71 -25.87 4.56 -25.03 5.16 -24.05 5.91 -23.88 6.65 -23.68 7.65 -24.27 7.9 -25.08 7.34 -26.13 6.52 -26.35 5.7 -26.54 5.02 -27.54 5.17 -28.37 6.23 -29.03 7.13 -28.82 8.03 -28.58 8.66 -27.51 8.41 -26.7 7.34 -26.13 "/><polyline fill="none" stroke="#444" stroke-width="0.5" stroke-linecap="square" stroke-miterlimit="1"  points="13.58 -23.5 14.31 -23.07 15.02 -22.61 15.72 -22.13 16.92 -22.3 17.43 -22.98 17.19 -24.2 16.43 -24.73 15.65 -25.23 14.85 -25.71 12.31 -21.3 "/><polyline fill="none" stroke="#444" stroke-width="0.5" stroke-linecap="square" stroke-miterlimit="1"  points="16.06 -18.63 18.28 -21.2 "/><polyline fill="none" stroke="#444" stroke-width="0.5" stroke-linecap="square" stroke-miterlimit="1"  points="18.83 -21.84 19.38 -22.49 "/><polyline fill="none" stroke="#444" stroke-width="0.5" stroke-linecap="square" stroke-miterlimit="1"  points="19.92 -15.84 18.76 -15.91 18.89 -17.05 22.04 -19.89 "/><polyline fill="none" stroke="#444" stroke-width="0.5" stroke-linecap="square" stroke-miterlimit="1"  points="21.91 -17.42 21.35 -18.1 20.78 -18.76 20.18 -19.4 19.56 -20.02 "/><polyline fill="none" stroke="#444" stroke-width="0.5" stroke-linecap="square" stroke-miterlimit="1"  points="21.77 -11.45 21.4 -12.13 21.01 -12.79 20.6 -13.44 20.87 -14.56 22.26 -15.54 23.44 -15.3 23.91 -14.56 24.35 -13.8 24.77 -13.03 "/><polyline fill="none" stroke="#444" stroke-width="0.5" stroke-linecap="square" stroke-miterlimit="1"  points="23.99 -10.77 25.1 -10.34 26.2 -9.84 26.5 -9.02 25.96 -7.94 23.52 -7.2 "/><polyline fill="none" stroke="#444" stroke-width="0.5" stroke-linecap="square" stroke-miterlimit="1"  points="22.44 -10.07 27.08 -12.16 "/><polyline fill="none" stroke="#444" stroke-width="0.5" stroke-linecap="square" stroke-miterlimit="1"  points="24.52 -1.92 24.57 -1.15 24.6 -0.38 24.6 0.38 25.42 1.19 28.81 1.35 29.68 0.46 29.68 -0.46 29.65 -1.39 29.6 -2.32 "/><polyline fill="none" stroke="#444" stroke-width="0.5" stroke-linecap="square" stroke-miterlimit="1"  points="29.65 -1.39 24.57 -1.15 "/><polyline fill="none" stroke="#444" stroke-width="0.5" stroke-linecap="square" stroke-miterlimit="1"  points="27.23 6.5 27.42 5.65 27.58 4.79 27.71 3.92 27.82 3.06 "/><polyline fill="none" stroke="#444" stroke-width="0.5" stroke-linecap="square" stroke-miterlimit="1"  points="25.58 6.11 25.75 5.3 25.91 4.5 26.04 3.69 26.14 2.87 "/><polyline fill="none" stroke="#444" stroke-width="0.5" stroke-linecap="square" stroke-miterlimit="1"  points="22.44 10.07 22.75 9.37 23.03 8.65 23.29 7.93 23.52 7.2 25.14 7.69 25.69 8.75 25.41 9.55 25.1 10.34 25.54 11.46 26.31 11.81 27.45 11.3 27.79 10.44 28.1 9.57 27.58 8.44 "/><polyline fill="none" stroke="#444" stroke-width="0.5" stroke-linecap="square" stroke-miterlimit="1"  points="21.76 16.22 21.24 16.9 20.71 17.55 20.15 18.19 20.18 19.4 20.79 19.99 22.04 19.89 22.65 19.2 23.24 18.48 23.8 17.74 19.72 14.7 "/><polyline fill="none" stroke="#444" stroke-width="0.5" stroke-linecap="square" stroke-miterlimit="1"  points="16.21 22.82 16.92 22.3 17.6 21.76 18.28 21.2 18.93 20.62 "/><polyline fill="none" stroke="#444" stroke-width="0.5" stroke-linecap="square" stroke-miterlimit="1"  points="15.23 21.44 15.89 20.95 16.54 20.44 17.17 19.92 17.78 19.37 "/><polyline fill="none" stroke="#444" stroke-width="0.5" stroke-linecap="square" stroke-miterlimit="1"  points="10.97 23.9 11.71 23.54 12.44 23.17 13.15 22.77 13.86 22.35 13.72 23.75 13.51 25.16 13.22 26.58 10.95 22.03 "/><polyline fill="none" stroke="#444" stroke-width="0.5" stroke-linecap="square" stroke-miterlimit="1"  points="5.7 26.54 4.86 26.7 4.03 26.84 3.19 26.96 2.42 27.89 2.49 28.73 3.49 29.48 4.4 29.36 5.32 29.21 6.23 29.03 5.16 24.05 "/><polyline fill="none" stroke="#444" stroke-width="0.5" stroke-linecap="square" stroke-miterlimit="1"  points="0.59 24.59 0.63 26.29 -0.21 27.99 -1.15 29.67 -1.95 27.92 -2.65 26.16 -2.48 24.47 "/><polyline fill="none" stroke="#444" stroke-width="0.5" stroke-linecap="square" stroke-miterlimit="1"  points="0.63 26.29 -0.19 26.29 -1.01 26.28 -1.83 26.23 -2.65 26.16 "/><polyline fill="none" stroke="#444" stroke-width="0.5" stroke-linecap="square" stroke-miterlimit="1"  points="-7.97 26.83 -7.12 27.07 -6.27 27.28 -5.42 27.46 -4.56 27.62 "/><polyline fill="none" stroke="#444" stroke-width="0.5" stroke-linecap="square" stroke-miterlimit="1"  points="-7.48 25.21 -6.69 25.43 -5.89 25.63 -5.09 25.8 -4.28 25.94 "/><polyline fill="none" stroke="#444" stroke-width="0.5" stroke-linecap="square" stroke-miterlimit="1"  points="-11.27 21.86 -10.58 22.2 -9.89 22.52 -9.18 22.82 -8.46 23.1 -9.04 24.69 -10.13 25.18 -10.91 24.85 -11.68 24.5 -12.83 24.88 -13.22 25.63 -12.77 26.8 -11.93 27.18 -11.08 27.54 -9.92 27.08 "/><polyline fill="none" stroke="#444" stroke-width="0.5" stroke-linecap="square" stroke-miterlimit="1"  points="-16.72 21.38 -16.04 21.89 -15.35 22.39 -14.64 22.85 -14.36 24.03 -14.79 24.76 -16.02 25 -16.79 24.48 -17.55 23.95 -17.76 22.72 -16.2 20.71 -15.04 20.53 -13.91 20.29 -13.27 20.71 "/></g></g><g class="guides gearguides" opacity="0.2"><circle class="pitch" fill="none" stroke="#f00" stroke-miterlimit="10" cx="0" cy="0" r="50"/><circle class="outer" fill="none" stroke="#ccc" stroke-miterlimit="10" stroke-dasharray="2,2" cx="0" cy="0" r="62.5"/><circle class="base" fill="none" stroke="#00f" stroke-miterlimit="10" stroke-dasharray="2,2" cx="0" cy="0" r="43.73"/></g></svg>