<?xml version="1.0" encoding="utf-8"?><!-- Generator: Iparigrafika Gear Generator by Abel Vincze http://geargenerator.com/ --><svg version="1.2" class="svggear" xmlns="http://www.w3.org/2000/svg" xmlns:xlink="http://www.w3.org/1999/xlink" x="0px" y="0px" width="188px" height="188px" viewBox="-94 -94 188 188" overflow="scroll" xml:space="preserve"><polygon id="gearpoly1" data-id="1" class="gear" fill="#ddd" stroke="#444" stroke-width="1" stroke-miterlimit="10" points="66.875,0 71.0737,-0.0001 71.1326,-0.0021 71.2425,-0.0085 71.4033,-0.0223 71.6146,-0.046 71.8759,-0.0825 72.1867,-0.1344 72.5463,-0.2044 72.9539,-0.2952 73.4085,-0.4093 73.9093,-0.5494 74.4552,-0.718 75.0448,-0.9176 75.6769,-1.1507 76.3501,-1.4197 77.0629,-1.7269 77.8137,-2.0747 78.6008,-2.4653 79.4224,-2.9008 80.2766,-3.3835 81.1614,-3.9153 82.0749,-4.4982 83.0148,-5.1341 83.9789,-5.8249 84.965,-6.5723 85.9706,-7.3779 86.9934,-8.2433 88.0308,-9.17 89.0802,-10.1593 90.139,-11.2126 91.2045,-12.331 92.2739,-13.5157 92.5983,-14.6495 92.4144,-15.7686 91.7439,-16.7389 90.3515,-17.5188 88.9841,-18.2372 87.6438,-18.8961 86.3329,-19.4973 85.0534,-20.0431 83.8074,-20.5355 82.5967,-20.9767 81.4233,-21.369 80.2887,-21.7148 79.1947,-22.0163 78.1427,-22.2761 77.1342,-22.4966 76.1704,-22.6804 75.2526,-22.8299 74.3819,-22.948 73.5593,-23.0371 72.7857,-23.0999 72.0618,-23.1392 71.3883,-23.1576 70.7658,-23.1579 70.1947,-23.1429 69.6754,-23.1153 69.2081,-23.0778 68.793,-23.0333 68.4299,-22.9845 68.1189,-22.9342 67.8596,-22.8851 67.6519,-22.8399 67.4951,-22.8015 67.3889,-22.7724 67.3325,-22.7554 63.3548,-21.4112 59.2149,-31.0784 62.9326,-33.0297 62.9838,-33.0588 63.0782,-33.1156 63.2142,-33.2025 63.3902,-33.3217 63.6046,-33.4755 63.8557,-33.6659 64.1415,-33.895 64.4602,-34.1647 64.8098,-34.4771 65.1881,-34.8339 65.5931,-35.2368 66.0224,-35.6876 66.4738,-36.1877 66.9449,-36.7387 67.4333,-37.342 67.9365,-37.9989 68.4519,-38.7105 68.9769,-39.478 69.509,-40.3023 70.0454,-41.1844 70.5833,-42.1251 71.12,-43.125 71.6526,-44.1847 72.1785,-45.3047 72.6945,-46.4854 73.198,-47.7269 73.6859,-49.0296 74.1553,-50.3933 74.6034,-51.8179 75.027,-53.3034 75.4234,-54.8493 75.1838,-56.0041 74.5008,-56.9095 73.4563,-57.4571 71.8609,-57.5006 70.3162,-57.5012 68.8233,-57.4617 67.3831,-57.3849 65.9966,-57.2736 64.6644,-57.1305 63.3874,-56.9586 62.1661,-56.7606 61.0008,-56.5395 59.8919,-56.2981 58.8397,-56.0392 57.8442,-55.7658 56.9055,-55.4806 56.0233,-55.1865 55.1975,-54.8864 54.4277,-54.583 53.7134,-54.2791 53.0542,-53.9775 52.4493,-53.6808 51.898,-53.3918 51.3993,-53.1131 50.9523,-52.8473 50.556,-52.597 50.209,-52.3647 49.9103,-52.1527 49.6582,-51.9636 49.4515,-51.7997 49.2885,-51.6631 49.1676,-51.5562 49.087,-51.4811 49.045,-51.4398 46.1476,-48.4011 37.9893,-55.037 40.3743,-58.4926 40.4062,-58.5421 40.4633,-58.6363 40.5434,-58.7764 40.6439,-58.9638 40.7623,-59.1996 40.8961,-59.4849 41.0427,-59.8206 41.1996,-60.2075 41.3639,-60.6466 41.5331,-61.1383 41.7044,-61.6833 41.8751,-62.2819 42.0424,-62.9345 42.2034,-63.6414 42.3555,-64.4025 42.4958,-65.218 42.6215,-66.0876 42.7297,-67.0112 42.8178,-67.9884 42.8827,-69.0187 42.9219,-70.1016 42.9324,-71.2363 42.9116,-72.4222 42.8567,-73.6583 42.765,-74.9436 42.6338,-76.2769 42.4604,-77.6571 42.2424,-79.0827 41.977,-80.5524 41.6618,-82.0646 41.2943,-83.6177 40.5455,-84.5288 39.52,-85.0131 38.3407,-85.0125 36.9078,-84.3097 35.5398,-83.5924 34.2362,-82.8636 32.9967,-82.1263 31.8207,-81.3833 30.7077,-80.6376 29.6568,-79.8919 28.6674,-79.149 27.7383,-78.4117 26.8687,-77.6826 26.0573,-76.9644 25.3029,-76.2597 24.6042,-75.5709 23.9597,-74.9006 23.3679,-74.251 22.8273,-73.6247 22.3361,-73.0236 21.8926,-72.4502 21.4948,-71.9064 21.141,-71.3943 20.8289,-70.9158 20.5567,-70.4727 20.3221,-70.0669 20.1228,-69.6999 19.9568,-69.3734 19.8215,-69.0888 19.7146,-68.8476 19.6337,-68.6509 19.5764,-68.5001 19.5399,-68.3961 19.5219,-68.3401 18.3685,-64.3029 8.0609,-66.3874 8.5669,-70.5555 8.572,-70.6142 8.5789,-70.7241 8.5846,-70.8854 8.5865,-71.098 8.5818,-71.3618 8.5677,-71.6766 8.5415,-72.042 8.5006,-72.4575 8.4421,-72.9227 8.3634,-73.4367 8.2618,-73.9988 8.1347,-74.6082 7.9795,-75.2638 7.7937,-75.9646 7.5746,-76.7092 7.3199,-77.4964 7.027,-78.3249 6.6936,-79.193 6.3175,-80.0991 5.8962,-81.0416 5.4276,-82.0187 4.9096,-83.0284 4.3401,-84.0687 3.717,-85.1377 3.0385,-86.2331 2.3027,-87.3527 1.5078,-88.4943 0.6522,-89.6553 -0.2658,-90.8333 -1.2476,-92.0258 -2.2947,-93.2302 -3.3812,-93.689 -4.5143,-93.6412 -5.5583,-93.0927 -6.5004,-91.8044 -7.3784,-90.5335 -8.194,-89.2824 -8.9489,-88.0535 -9.6449,-86.8492 -10.2839,-85.6716 -10.8678,-84.523 -11.3987,-83.4054 -11.8787,-82.3208 -12.3099,-81.2711 -12.6946,-80.258 -13.0351,-79.2834 -13.3337,-78.3489 -13.5928,-77.4558 -13.8149,-76.6057 -14.0025,-75.7998 -14.1581,-75.0393 -14.2844,-74.3255 -14.3838,-73.6591 -14.4592,-73.0412 -14.5131,-72.4725 -14.5483,-71.9537 -14.5674,-71.4853 -14.5733,-71.0678 -14.5686,-70.7015 -14.5561,-70.3866 -14.5386,-70.1233 -14.5189,-69.9116 -14.4996,-69.7514 -14.4835,-69.6424 -14.4734,-69.5844 -13.6185,-65.4737 -23.7142,-62.5292 -25.2032,-66.455 -25.2259,-66.5094 -25.2709,-66.6099 -25.3408,-66.7554 -25.4379,-66.9445 -25.5647,-67.1759 -25.7235,-67.4481 -25.9164,-67.7595 -26.1458,-68.1084 -26.4138,-68.493 -26.7223,-68.9116 -27.0735,-69.3622 -27.4692,-69.8427 -27.9113,-70.3511 -28.4016,-70.8852 -28.9416,-71.4427 -29.533,-72.0214 -30.1773,-72.6188 -30.8759,-73.2326 -31.6301,-73.8601 -32.4411,-74.4989 -33.31,-75.1463 -34.238,-75.7996 -35.2257,-76.4561 -36.2742,-77.1131 -37.3841,-77.7677 -38.5559,-78.4171 -39.7902,-79.0585 -41.0874,-79.6889 -42.4477,-80.3054 -43.8713,-80.905 -45.3581,-81.4848 -46.5334,-81.3862 -47.5145,-80.8173 -48.184,-79.8464 -48.4194,-78.2679 -48.6063,-76.7345 -48.747,-75.2477 -48.8444,-73.8088 -48.901,-72.4189 -48.9195,-71.0793 -48.9028,-69.7909 -48.8535,-68.5545 -48.7744,-67.3711 -48.6684,-66.2412 -48.5383,-65.1655 -48.3868,-64.1443 -48.2169,-63.178 -48.0313,-62.2668 -47.8329,-61.4108 -47.6245,-60.6101 -47.4089,-59.8644 -47.1889,-59.1737 -46.9674,-58.5374 -46.7469,-57.9553 -46.5304,-57.4266 -46.3204,-56.9509 -46.1197,-56.5272 -45.9308,-56.1548 -45.7565,-55.8327 -45.5991,-55.5597 -45.4613,-55.3347 -45.3454,-55.1564 -45.2538,-55.0235 -45.189,-54.9345 -45.1531,-54.8878 -42.4857,-51.6452 -50.0567,-44.3463 -53.1995,-47.1305 -53.2449,-47.1681 -53.3315,-47.2361 -53.4609,-47.3325 -53.6348,-47.4548 -53.8546,-47.6008 -54.1217,-47.768 -54.4372,-47.9541 -54.8025,-48.1564 -55.2185,-48.3725 -55.6863,-48.5997 -56.2066,-48.8355 -56.7803,-49.077 -57.408,-49.3217 -58.0903,-49.5668 -58.8276,-49.8096 -59.6202,-50.0471 -60.4683,-50.2767 -61.3721,-50.4955 -62.3315,-50.7007 -63.3465,-50.8894 -64.4168,-51.0588 -65.542,-51.206 -66.7218,-51.3283 -67.9555,-51.4228 -69.2424,-51.4866 -70.5818,-51.5171 -71.9728,-51.5114 -73.4144,-51.4667 -74.9053,-51.3805 -76.4445,-51.2498 -78.0305,-51.0723 -79.0253,-50.4387 -79.6297,-49.4791 -79.7712,-48.3082 -79.2462,-46.8011 -78.699,-45.3566 -78.1327,-43.9747 -77.5502,-42.6553 -76.9544,-41.3984 -76.3483,-40.2036 -75.7347,-39.0705 -75.1165,-37.9987 -74.4965,-36.9876 -73.8776,-36.0364 -73.2624,-35.1443 -72.6538,-34.3105 -72.0542,-33.5338 -71.4664,-32.8133 -70.893,-32.1475 -70.3363,-31.5354 -69.7989,-30.9753 -69.2831,-30.4659 -68.7912,-30.0055 -68.3255,-29.5925 -67.8881,-29.225 -67.4811,-28.9013 -67.1065,-28.6195 -66.7662,-28.3775 -66.4621,-28.1733 -66.1959,-28.0047 -65.9693,-27.8695 -65.7838,-27.7655 -65.641,-27.6904 -65.5422,-27.6417 -65.4887,-27.617 -61.62,-25.9855 -64.9317,-16.0042 -69.0084,-17.0089 -69.0661,-17.0211 -69.1744,-17.0412 -69.3338,-17.0663 -69.5446,-17.0938 -69.8071,-17.1209 -70.1213,-17.1449 -70.4871,-17.163 -70.9046,-17.1724 -71.3734,-17.1704 -71.8932,-17.1542 -72.4635,-17.1211 -73.0837,-17.0684 -73.7533,-16.9934 -74.4713,-16.8934 -75.2369,-16.7656 -76.0491,-16.6076 -76.9068,-16.4168 -77.8087,-16.1905 -78.7536,-15.9263 -79.74,-15.6217 -80.7664,-15.2743 -81.8312,-14.8818 -82.9326,-14.4418 -84.0689,-13.9521 -85.2381,-13.4106 -86.4383,-12.8151 -87.6673,-12.1636 -88.923,-11.4542 -90.2031,-10.6849 -91.5052,-9.854 -92.8271,-8.9596 -93.4135,-7.9364 -93.5026,-6.8058 -93.0839,-5.7033 -91.9186,-4.6128 -90.7628,-3.588 -89.6191,-2.6276 -88.4902,-1.73 -87.3785,-0.8939 -86.2866,-0.1177 -85.2167,0.6005 -84.1712,1.2622 -83.1524,1.8694 -82.1623,2.424 -81.203,2.928 -80.2766,3.3835 -79.3848,3.7925 -78.5295,4.1574 -77.7123,4.4804 -76.9349,4.7637 -76.1988,5.0099 -75.5053,5.2213 -74.8558,5.4003 -74.2515,5.5496 -73.6935,5.6717 -73.1826,5.7691 -72.72,5.8446 -72.3062,5.9008 -71.942,5.9403 -71.628,5.9658 -71.3645,5.9802 -71.152,5.9861 -70.9906,5.9863 -70.8805,5.9835 -70.8216,5.9804 -66.6378,5.6273 -64.9317,16.0042 -69.0084,17.0092 -69.0651,17.0251 -69.1703,17.0577 -69.3231,17.1096 -69.5226,17.1832 -69.7676,17.2812 -70.0569,17.4059 -70.3893,17.56 -70.7633,17.7456 -71.1775,17.9653 -71.6302,18.2211 -72.1198,18.5154 -72.6445,18.8504 -73.2025,19.2279 -73.7918,19.6502 -74.4103,20.1191 -75.0561,20.6364 -75.7268,21.204 -76.4203,21.8235 -77.1342,22.4966 -77.866,23.2247 -78.6134,24.0093 -79.3738,24.8517 -80.1446,25.7531 -80.9232,26.7148 -81.7068,27.7376 -82.4928,28.8227 -83.2783,29.9707 -84.0604,31.1824 -84.8364,32.4585 -85.6032,33.7994 -86.358,35.2055 -86.4017,36.3841 -85.9553,37.4266 -85.0721,38.2082 -83.5336,38.6323 -82.0339,39.0025 -80.5749,39.3215 -79.1582,39.5916 -77.7853,39.8153 -76.4576,39.9952 -75.1766,40.1338 -73.9433,40.2339 -72.759,40.2981 -71.6246,40.3291 -70.541,40.3296 -69.509,40.3023 -68.5293,40.2501 -67.6023,40.1757 -66.7287,40.0819 -65.9087,39.9715 -65.1425,39.8474 -64.4302,39.7123 -63.7719,39.569 -63.1674,39.4203 -62.6165,39.2691 -62.119,39.118 -61.6742,38.9698 -61.2817,38.8272 -60.9409,38.693 -60.651,38.5697 -60.411,38.4599 -60.2201,38.3664 -60.0771,38.2915 -59.9809,38.2379 -59.9302,38.2079 -56.3897,35.9508 -50.0567,44.3463 -53.1993,47.1307 -53.2421,47.1712 -53.3201,47.2489 -53.4314,47.3658 -53.5738,47.5237 -53.7452,47.7243 -53.9434,47.9693 -54.1661,48.2601 -54.411,48.5983 -54.6756,48.9853 -54.9576,49.4222 -55.2544,49.9103 -55.5633,50.4507 -55.8819,51.0444 -56.2075,51.6921 -56.5373,52.3948 -56.8686,53.153 -57.1988,53.9672 -57.5249,54.8381 -57.8442,55.7658 -58.1539,56.7506 -58.4511,57.7927 -58.7329,58.8919 -58.9965,60.0483 -59.239,61.2616 -59.4575,62.5315 -59.6492,63.8575 -59.8112,65.239 -59.9406,66.6755 -60.0347,68.166 -60.0905,69.7096 -60.1054,71.3055 -59.5964,72.3694 -58.7166,73.085 -57.5714,73.3667 -56.012,73.0272 -54.512,72.6581 -53.0719,72.2625 -51.692,71.8432 -50.3724,71.4033 -49.1132,70.9456 -47.9144,70.4731 -46.7759,69.9886 -45.6974,69.495 -44.6786,68.9952 -43.7189,68.4921 -42.8178,67.9884 -41.9745,67.4868 -41.1883,66.9902 -40.4584,66.5011 -39.7835,66.0223 -39.1628,65.5563 -38.5949,65.1057 -38.0786,64.6729 -37.6124,64.2603 -37.1949,63.8704 -36.8246,63.5054 -36.4996,63.1675 -36.2184,62.8588 -35.979,62.5816 -35.7795,62.3376 -35.6181,62.129 -35.4925,61.9574 -35.4006,61.8247 -35.3404,61.7325 -35.3095,61.6823 -33.2235,58.0385 -23.7142,62.5292 -25.203,66.4551 -25.222,66.5108 -25.255,66.6159 -25.2991,66.7712 -25.3518,66.9772 -25.4104,67.2344 -25.4721,67.5434 -25.5341,67.9045 -25.5938,68.3177 -25.6483,68.7833 -25.6949,69.3013 -25.7308,69.8714 -25.7532,70.4935 -25.7595,71.1672 -25.7467,71.892 -25.7122,72.6675 -25.6533,73.4928 -25.5672,74.3672 -25.4513,75.2899 -25.3029,76.2597 -25.1194,77.2756 -24.8983,78.3364 -24.6369,79.4408 -24.3329,80.5872 -23.9838,81.7742 -23.5871,83.0002 -23.1407,84.2634 -22.6421,85.5619 -22.0891,86.894 -21.4798,88.2575 -20.8118,89.6503 -20.0834,91.0703 -19.1383,91.7758 -18.0267,92.0006 -16.8817,91.7178 -15.6587,90.6924 -14.5021,89.6685 -13.4108,88.649 -12.3837,87.6365 -11.4197,86.6337 -10.5175,85.6432 -9.6757,84.6677 -8.8927,83.7097 -8.1671,82.7714 -7.4972,81.8554 -6.8813,80.9639 -6.3175,80.0991 -5.8039,79.2631 -5.3386,78.458 -4.9195,77.6858 -4.5445,76.9482 -4.2114,76.2471 -3.918,75.5842 -3.6619,74.961 -3.4409,74.3791 -3.2524,73.8398 -3.0941,73.3445 -2.9634,72.8942 -2.8578,72.4903 -2.7747,72.1335 -2.7115,71.8248 -2.6654,71.565 -2.634,71.3547 -2.6144,71.1945 -2.6039,71.0849 -2.5998,71.0261 -2.4461,66.8303 8.0609,66.3874 8.5671,70.5555 8.5761,70.6137 8.5958,70.7221 8.6288,70.88 8.6779,71.0869 8.7456,71.3419 8.8346,71.6442 8.9474,71.9927 9.0867,72.3864 9.2548,72.824 9.4542,73.3042 9.6874,73.8257 9.9566,74.387 10.2642,74.9864 10.6123,75.6223 11.0032,76.2929 11.439,76.9963 11.9216,77.7306 12.453,78.4936 13.0351,79.2834 13.6697,80.0977 14.3584,80.9343 15.103,81.7906 15.905,82.6645 16.7658,83.5533 17.6867,84.4545 18.6691,85.3655 19.7141,86.2836 20.8227,87.2061 21.9959,88.1302 23.2346,89.0531 24.5395,89.9719 25.7042,90.1574 26.793,89.8399 27.6753,89.0574 28.2817,87.5811 28.8301,86.137 29.3226,84.7271 29.7614,83.3532 30.149,82.0173 30.4876,80.7211 30.7797,79.4661 31.0277,78.2539 31.2342,77.0859 31.4016,75.9635 31.5327,74.8879 31.6301,73.8601 31.6963,72.8812 31.7342,71.9521 31.7464,71.0735 31.7357,70.2462 31.7048,69.4706 31.6565,68.7472 31.5936,68.0764 31.5189,67.4585 31.4352,66.8934 31.3452,66.3812 31.2517,65.9218 31.1574,65.515 31.0652,65.1605 30.9778,64.8578 30.8978,64.6064 30.8279,64.4055 30.7709,64.2546 30.7292,64.1526 30.7055,64.0987 28.8917,60.312 37.9893,55.037 40.3746,58.4924 40.4096,58.5398 40.4774,58.6266 40.58,58.7511 40.7196,58.9115 40.8981,59.1059 41.1174,59.3321 41.3792,59.5883 41.6855,59.8722 42.0377,60.1815 42.4375,60.5141 42.8863,60.8675 43.3855,61.2394 43.9364,61.6272 44.5402,62.0284 45.1979,62.4406 45.9107,62.8609 46.6792,63.2868 47.5044,63.7155 48.3868,64.1443 49.3272,64.5704 50.3258,64.991 51.3831,65.4033 52.4993,65.8043 53.6745,66.1913 54.9088,66.5613 56.202,66.9114 57.5539,67.2388 58.9643,67.5404 60.4326,67.8134 61.9583,68.055 63.5407,68.2621 64.6582,67.8851 65.4746,67.0979 65.8923,65.995 65.7432,64.4061 65.5576,62.8725 65.3385,61.3952 65.0886,59.9748 64.811,58.6118 64.5084,57.3066 64.1838,56.0597 63.8401,54.8711 63.4801,53.741 63.1068,52.6693 62.723,51.6559 62.3315,50.7007 61.9353,49.8031 61.537,48.9628 61.1395,48.1792 60.7456,47.4516 60.3578,46.7792 59.9789,46.1611 59.6115,45.5964 59.2581,45.0839 58.9214,44.6225 58.6036,44.2108 58.3074,43.8475 58.0349,43.5311 57.7885,43.26 57.5704,43.0326 57.3827,42.8472 57.2275,42.7018 57.1068,42.5947 57.0226,42.5238 56.9765,42.487 53.6107,39.977 59.2149,31.0784 62.9327,33.0295 62.9857,33.0551 63.0861,33.1005 63.2349,33.1631 63.433,33.2402 63.6813,33.3293 63.9806,33.4278 64.3316,33.5329 64.7346,33.642 65.1903,33.7522 65.6988,33.8609 66.2604,33.9653 66.8753,34.0625 67.5433,34.1499 68.2644,34.2246 69.0384,34.2838 69.8648,34.3248 70.7432,34.3447 71.6731,34.3409 72.6538,34.3105 73.6844,34.2508 74.7641,34.1591 75.8919,34.0328 77.0666,33.8692 78.2871,33.6657 79.5519,33.4197 80.8597,33.1288 82.2089,32.7903 83.5979,32.402 85.0249,31.9614 86.4881,31.4662 87.9855,30.9143 88.7997,30.0611 89.1569,28.9847 89.0142,27.814 88.1437,26.4763 87.2667,25.2047 86.3861,23.9985 85.5048,22.8569 84.6255,21.779 83.7511,20.764 82.8841,19.8107 82.0274,18.918 81.1835,18.0846 80.3549,17.3092 79.5441,16.5902 78.7536,15.9263 77.9856,15.3157 77.2425,14.7567 76.5264,14.2476 75.8394,13.7864 75.1835,13.3712 74.5608,13.0001 73.9731,12.6708 73.422,12.3812 72.9094,12.1291 72.4367,11.9123 72.0056,11.7283 71.6173,11.5747 71.2731,11.4492 70.9743,11.3492 70.7219,11.2722 70.517,11.2156 70.3603,11.1768 70.2527,11.1532 70.1949,11.1421 66.0481,10.4837 "/><g class="guides"><polyline fill="none" stroke="#444" stroke-width="0.5" stroke-miterlimit="10" points="10,0 -10,0"/><polyline fill="none" stroke="#444" stroke-width="0.5" stroke-miterlimit="10" points="0,10 0,-10"/></g><circle fill="#c00" class="firstmarker" stroke="none" stroke-miterlimit="10" cx="80.1736" cy="-13.1814" r="4.9063"/><g class="geartext"><g class="text"><polyline fill="none" stroke="#444" stroke-width="0.5" stroke-linecap="square" stroke-miterlimit="1"  points="-31.63 -41.12 -32.8 -40.19 -33.95 -39.22 -35.07 -38.22 -36.16 -37.19 "/><polyline fill="none" stroke="#444" stroke-width="0.5" stroke-linecap="square" stroke-miterlimit="1"  points="-31.99 -36.95 -35.92 -41.49 "/><polyline fill="none" stroke="#444" stroke-width="0.5" stroke-linecap="square" stroke-miterlimit="1"  points="-33.46 -43.49 -33.75 -41.35 -33.95 -39.22 -34.06 -37.12 -34.07 -35.04 "/><polyline fill="none" stroke="#444" stroke-width="0.5" stroke-linecap="square" stroke-miterlimit="1"  points="-29.8 -38.74 -31.86 -39.02 -33.95 -39.22 -36.09 -39.33 -38.25 -39.34 "/><polyline fill="none" stroke="#444" stroke-width="0.5" stroke-linecap="square" stroke-miterlimit="1"  points="-30.89 -45.36 -30.37 -47.49 -25.52 -39.91 "/><polyline fill="none" stroke="#444" stroke-width="0.5" stroke-linecap="square" stroke-miterlimit="1"  points="-24.36 -40.63 -25.52 -39.91 -26.67 -39.16 "/><polyline fill="none" stroke="#444" stroke-width="0.5" stroke-linecap="square" stroke-miterlimit="1"  points="-12.41 -54.99 -10.43 -46.21 -12.32 -48.07 -14.33 -49.86 -16.45 -51.57 -18.67 -53.19 -15.69 -44.7 "/><polyline fill="none" stroke="#444" stroke-width="0.5" stroke-linecap="square" stroke-miterlimit="1"  points="-2.59 -53.31 -4.13 -53.22 -5.66 -53.07 -7.2 -52.89 -8.72 -52.66 "/><polyline fill="none" stroke="#444" stroke-width="0.5" stroke-linecap="square" stroke-miterlimit="1"  points="-2.44 -50.32 -3.89 -50.22 -5.35 -50.09 -6.79 -49.92 -8.23 -49.7 "/><polyline fill="none" stroke="#444" stroke-width="0.5" stroke-linecap="square" stroke-miterlimit="1"  points="0.51 -54.87 2.16 -56.33 1.81 -47.34 "/><polyline fill="none" stroke="#444" stroke-width="0.5" stroke-linecap="square" stroke-miterlimit="1"  points="3.18 -47.27 1.81 -47.34 0.44 -47.37 "/><polyline fill="none" stroke="#444" stroke-width="0.5" stroke-linecap="square" stroke-miterlimit="1"  points="6.84 -54.45 8.64 -55.71 10.25 -55.44 11.85 -55.12 13.08 -53.29 12.72 -51.84 10.9 -50.72 12.01 -48.92 11.65 -47.47 9.96 -46.32 8.61 -46.59 7.26 -46.81 6.09 -48.49 "/><polyline fill="none" stroke="#444" stroke-width="0.5" stroke-linecap="square" stroke-miterlimit="1"  points="9.43 -51.01 10.9 -50.72 "/><polyline fill="none" stroke="#444" stroke-width="0.5" stroke-linecap="square" stroke-miterlimit="1"  points="22.24 -46.87 23.59 -46.2 24.91 -45.5 26.22 -44.76 28.3 -45.26 29.09 -46.53 28.49 -48.65 27.07 -49.45 25.63 -50.21 24.17 -50.93 20.31 -42.8 "/><polyline fill="none" stroke="#444" stroke-width="0.5" stroke-linecap="square" stroke-miterlimit="1"  points="27.39 -38.65 30.86 -43.55 "/><polyline fill="none" stroke="#444" stroke-width="0.5" stroke-linecap="square" stroke-miterlimit="1"  points="31.73 -44.77 32.6 -45.99 "/><polyline fill="none" stroke="#444" stroke-width="0.5" stroke-linecap="square" stroke-miterlimit="1"  points="34.72 -34.4 32.68 -34.3 32.67 -36.35 37.69 -41.92 "/><polyline fill="none" stroke="#444" stroke-width="0.5" stroke-linecap="square" stroke-miterlimit="1"  points="37.92 -37.56 36.82 -38.65 35.68 -39.69 34.52 -40.71 33.33 -41.69 "/><polyline fill="none" stroke="#444" stroke-width="0.5" stroke-linecap="square" stroke-miterlimit="1"  points="38.91 -27.03 38.11 -28.15 37.28 -29.24 36.42 -30.3 36.65 -32.33 38.9 -34.32 41.03 -34.14 42 -32.94 42.93 -31.71 43.83 -30.46 "/><polyline fill="none" stroke="#444" stroke-width="0.5" stroke-linecap="square" stroke-miterlimit="1"  points="42.96 -26.3 45.01 -25.8 47.06 -25.19 47.76 -23.82 47.07 -21.8 42.99 -19.91 "/><polyline fill="none" stroke="#444" stroke-width="0.5" stroke-linecap="square" stroke-miterlimit="1"  points="40.4 -24.74 48.08 -29.44 "/><polyline fill="none" stroke="#444" stroke-width="0.5" stroke-linecap="square" stroke-miterlimit="1"  points="46.11 -10.86 46.41 -9.52 46.66 -8.18 46.88 -6.83 48.55 -5.64 54.51 -6.33 55.79 -8.12 55.53 -9.73 55.22 -11.33 54.87 -12.92 "/><polyline fill="none" stroke="#444" stroke-width="0.5" stroke-linecap="square" stroke-miterlimit="1"  points="55.22 -11.33 46.41 -9.52 "/><polyline fill="none" stroke="#444" stroke-width="0.5" stroke-linecap="square" stroke-miterlimit="1"  points="53.29 3.09 53.35 1.54 53.37 0 53.35 -1.54 53.29 -3.09 "/><polyline fill="none" stroke="#444" stroke-width="0.5" stroke-linecap="square" stroke-miterlimit="1"  points="50.29 2.91 50.35 1.46 50.37 0 50.35 -1.46 50.29 -2.91 "/><polyline fill="none" stroke="#444" stroke-width="0.5" stroke-linecap="square" stroke-miterlimit="1"  points="54.51 6.33 55.79 8.12 55.53 9.73 55.22 11.33 53.41 12.58 51.95 12.24 50.82 10.43 49.03 11.55 47.57 11.21 46.41 9.52 46.66 8.18 46.88 6.83 48.55 5.64 "/><polyline fill="none" stroke="#444" stroke-width="0.5" stroke-linecap="square" stroke-miterlimit="1"  points="51.1 8.95 50.82 10.43 "/><polyline fill="none" stroke="#444" stroke-width="0.5" stroke-linecap="square" stroke-miterlimit="1"  points="46.85 13.94 45.41 13.51 "/><polyline fill="none" stroke="#444" stroke-width="0.5" stroke-linecap="square" stroke-miterlimit="1"  points="42.39 21.14 42.99 19.91 43.55 18.66 44.07 17.39 44.55 16.11 47.37 17.13 48.25 19.04 47.68 20.43 47.07 21.8 47.76 23.82 49.11 24.49 51.15 23.69 51.82 22.2 52.44 20.7 51.6 18.66 "/><polyline fill="none" stroke="#444" stroke-width="0.5" stroke-linecap="square" stroke-miterlimit="1"  points="45.35 33.49 46.3 32.17 47.21 30.82 48.08 29.44 48.91 28.04 46.31 26.54 45.52 27.87 44.7 29.18 43.83 30.46 41.73 30.82 39.31 29.04 38.91 27.03 39.67 25.9 40.4 24.74 42.4 24.31 "/><polyline fill="none" stroke="#444" stroke-width="0.5" stroke-linecap="square" stroke-miterlimit="1"  points="34.68 38.58 33.55 39.56 32.39 40.52 31.21 41.44 30.86 43.55 31.73 44.77 33.91 45.03 35.2 44.03 36.46 43 37.69 41.92 31.67 35.23 "/><polyline fill="none" stroke="#444" stroke-width="0.5" stroke-linecap="square" stroke-miterlimit="1"  points="22.88 48.22 24.27 47.54 25.63 46.82 26.98 46.06 28.3 45.26 "/><polyline fill="none" stroke="#444" stroke-width="0.5" stroke-linecap="square" stroke-miterlimit="1"  points="21.6 45.51 22.9 44.87 24.19 44.19 25.46 43.47 26.71 42.71 "/><polyline fill="none" stroke="#444" stroke-width="0.5" stroke-linecap="square" stroke-miterlimit="1"  points="13.42 48.56 14.81 48.15 16.2 47.7 17.57 47.21 18.93 46.68 18.27 49.08 17.49 51.49 16.58 53.88 13.93 45.28 "/><polyline fill="none" stroke="#444" stroke-width="0.5" stroke-linecap="square" stroke-miterlimit="1"  points="3.48 51.76 1.98 51.84 0.49 51.87 -1.01 51.87 -2.59 53.31 -2.66 54.81 -1.1 56.36 0.53 56.37 2.16 56.33 3.78 56.25 3.18 47.27 "/><polyline fill="none" stroke="#444" stroke-width="0.5" stroke-linecap="square" stroke-miterlimit="1"  points="-5.03 47.11 -5.35 50.09 -7.2 52.89 -9.21 55.62 -10.24 52.38 -11.09 49.14 -10.43 46.21 "/><polyline fill="none" stroke="#444" stroke-width="0.5" stroke-linecap="square" stroke-miterlimit="1"  points="-5.35 50.09 -6.79 49.92 -8.23 49.7 -9.67 49.44 -11.09 49.14 "/><polyline fill="none" stroke="#444" stroke-width="0.5" stroke-linecap="square" stroke-miterlimit="1"  points="-20.56 49.26 -19.13 49.83 -17.68 50.36 -16.22 50.85 -14.74 51.3 "/><polyline fill="none" stroke="#444" stroke-width="0.5" stroke-linecap="square" stroke-miterlimit="1"  points="-19.41 46.49 -18.05 47.03 -16.69 47.53 -15.31 47.99 -13.91 48.42 "/><polyline fill="none" stroke="#444" stroke-width="0.5" stroke-linecap="square" stroke-miterlimit="1"  points="-25.52 39.91 -24.36 40.63 -23.17 41.32 -21.97 41.97 -20.75 42.59 -22.06 45.29 -24.06 45.96 -25.38 45.24 -26.67 44.49 -28.76 44.97 -29.56 46.23 -28.99 48.35 -27.58 49.17 -26.14 49.95 -24.03 49.33 "/><polyline fill="none" stroke="#444" stroke-width="0.5" stroke-linecap="square" stroke-miterlimit="1"  points="-35.07 38.22 -33.95 39.22 -32.8 40.19 -31.63 41.12 -31.31 43.23 -32.19 44.44 -34.37 44.68 -35.65 43.67 -36.9 42.62 -37.1 40.43 -34.06 37.12 -31.99 36.95 -29.96 36.7 -28.89 37.55 "/></g></g><g class="guides gearguides" opacity="0.2"><circle class="pitch" fill="none" stroke="#f00" stroke-miterlimit="10" cx="0" cy="0" r="81.25"/><circle class="outer" fill="none" stroke="#ccc" stroke-miterlimit="10" stroke-dasharray="2,2" cx="0" cy="0" r="93.75"/><circle class="base" fill="none" stroke="#00f" stroke-miterlimit="10" stroke-dasharray="2,2" cx="0" cy="0" r="71.06"/></g></svg>